<svg width="274" height="354" viewBox="0 0 274 354" fill="none" xmlns="http://www.w3.org/2000/svg">
<path d="M273.582 243.682L141.785 157.117L3.5874 230.872L5.16665 231.688L45.1162 211.269L84.481 233.493L46.6148 253.1L51.1811 255.458L132.087 213.307L170.481 234.754L90.7669 275.907L97.2266 279.244L219.93 216.704L256.483 237.374L136.098 299.325L143.983 303.398L273.582 243.682Z" fill="#575B57"/>
<path d="M0 77.4427V229.611L138.94 155.953L139.231 0.776367L0 77.4427ZM40.2862 205.834L3.1996 225.729V179.874L40.3343 159.106L40.2862 205.834ZM52.0181 200.012V113.301L88.2321 95.8806L88.426 180.311L52.0181 200.012ZM135.062 155.953L100.448 174.198V36.5863L135.256 16.4008L135.062 155.953Z" fill="#BD3536"/>
<path d="M273.452 89.832L141.655 0L142.107 154.27L273.647 239.929L273.452 89.832ZM178.758 174.909L146.18 153.236L146.051 104.195L178.758 126.58V174.909ZM223.294 205.058L192.461 184.678V97.9838L223.488 121.857L223.294 205.058ZM266.795 233.525L232.86 211.14V73.852L266.989 95.7199L266.795 233.525Z" fill="#8E3027"/>
<path d="M42.7288 351.329V352.438H25.3447V351.329H26.7812C28.4567 351.329 29.6737 350.841 30.4315 349.862C30.9101 349.223 31.1498 347.685 31.1498 345.25V319.016C31.1498 316.96 31.0202 315.602 30.7612 314.943C30.5618 314.444 30.1523 314.015 29.5341 313.656C28.656 313.177 27.7392 312.937 26.7812 312.937H25.3447V311.828H42.7288V312.937H41.2628C39.6068 312.937 38.4006 313.426 37.6428 314.404C37.1441 315.043 36.8951 316.581 36.8951 319.016V345.25C36.8951 347.307 37.0246 348.664 37.2837 349.323C37.483 349.823 37.9019 350.251 38.5403 350.61C39.3974 351.089 40.3057 351.329 41.2628 351.329H42.7288Z" fill="#B33331" stroke="#A83430" stroke-width="0.5" stroke-miterlimit="10"/>
<path d="M80.1706 311.828L80.6198 321.352H79.4826C79.2631 319.675 78.9637 318.477 78.5852 317.758C77.967 316.6 77.144 315.746 76.1163 315.198C75.0885 314.649 73.7381 314.374 72.0619 314.374H66.3468V345.4C66.3468 347.896 66.616 349.453 67.1551 350.072C67.9129 350.91 69.0795 351.329 70.6556 351.329H72.0619V352.438H54.8578V351.329H56.2943C58.0093 351.329 59.2263 350.81 59.9445 349.772C60.3828 349.133 60.6031 347.676 60.6031 345.4V314.374H55.7257C53.8308 314.374 52.4842 314.514 51.6861 314.792C50.649 315.172 49.7609 315.901 49.0232 316.979C48.2848 318.057 47.8458 319.515 47.7069 321.351H46.5698L47.0484 311.827H80.1706V311.828Z" fill="#B33331" stroke="#A83430" stroke-width="0.5" stroke-miterlimit="10"/>
<path d="M95.4419 314.045V330.097H104.358C106.672 330.097 108.218 329.748 108.996 329.048C110.033 328.13 110.611 326.513 110.731 324.197H111.838V338.333H110.731C110.452 336.355 110.172 335.088 109.893 334.529C109.534 333.831 108.945 333.282 108.128 332.882C107.31 332.483 106.053 332.283 104.358 332.283H95.4419V345.67C95.4419 347.467 95.5218 348.56 95.6816 348.949C95.8414 349.339 96.1198 349.648 96.5193 349.878C96.918 350.108 97.6758 350.222 98.7935 350.222H105.675C107.969 350.222 109.634 350.063 110.672 349.743C111.709 349.424 112.707 348.795 113.664 347.855C114.9 346.618 116.167 344.752 117.464 342.256H118.661L115.16 352.438H83.8931V351.329H85.3296C86.2868 351.329 87.1943 351.1 88.0522 350.64C88.6906 350.321 89.1242 349.842 89.3538 349.202C89.5826 348.564 89.6974 347.255 89.6974 345.279V318.896C89.6974 316.321 89.4383 314.734 88.9194 314.135C88.2011 313.337 87.0043 312.937 85.3288 312.937H83.8923V311.828H115.159L115.608 320.723H114.442C114.023 318.586 113.559 317.119 113.051 316.32C112.542 315.522 111.789 314.913 110.791 314.493C109.993 314.193 108.587 314.044 106.573 314.044H95.4419V314.045Z" fill="#B33331" stroke="#A83430" stroke-width="0.5" stroke-miterlimit="10"/>
<path d="M145.63 352.438L129.952 318.267V345.4C129.952 347.896 130.221 349.453 130.76 350.072C131.498 350.91 132.665 351.329 134.261 351.329H135.697V352.438H121.575V351.329H123.011C124.726 351.329 125.943 350.81 126.661 349.772C127.1 349.133 127.32 347.676 127.32 345.4V318.865C127.32 317.069 127.121 315.771 126.722 314.972C126.443 314.393 125.929 313.909 125.182 313.52C124.433 313.13 123.232 312.936 121.576 312.936V311.827H133.066L147.787 343.603L162.269 311.827H173.759V312.936H172.352C170.618 312.936 169.391 313.455 168.673 314.493C168.234 315.132 168.014 316.589 168.014 318.865V345.4C168.014 347.896 168.293 349.453 168.852 350.072C169.59 350.91 170.756 351.329 172.352 351.329H173.759V352.438H156.524V351.329H157.961C159.696 351.329 160.913 350.81 161.611 349.772C162.049 349.133 162.27 347.676 162.27 345.4V318.267L146.621 352.438H145.63Z" fill="#B33331" stroke="#A83430" stroke-width="0.5" stroke-miterlimit="10"/>
<path d="M203.627 310.9V324.946H202.52C202.161 322.25 201.518 320.105 200.59 318.506C199.663 316.909 198.342 315.642 196.627 314.704C194.91 313.766 193.136 313.296 191.3 313.296C189.225 313.296 187.51 313.93 186.154 315.198C184.797 316.465 184.119 317.907 184.119 319.525C184.119 320.763 184.548 321.891 185.406 322.908C186.642 324.406 189.585 326.403 194.233 328.898C198.022 330.935 200.611 332.497 201.997 333.585C203.384 334.673 204.451 335.956 205.199 337.433C205.947 338.911 206.321 340.457 206.321 342.075C206.321 345.15 205.129 347.8 202.745 350.025C200.362 352.252 197.295 353.365 193.545 353.365C192.368 353.365 191.261 353.275 190.224 353.095C189.605 352.995 188.324 352.631 186.38 352.002C184.434 351.373 183.202 351.059 182.683 351.059C182.185 351.059 181.791 351.208 181.502 351.508C181.213 351.807 180.999 352.427 180.859 353.365H179.752V339.439H180.859C181.377 342.354 182.075 344.535 182.953 345.983C183.831 347.43 185.172 348.633 186.978 349.591C188.783 350.549 190.763 351.029 192.917 351.029C195.41 351.029 197.379 350.369 198.826 349.052C200.272 347.734 200.995 346.177 200.995 344.38C200.995 343.382 200.72 342.374 200.172 341.355C199.623 340.336 198.77 339.389 197.613 338.51C196.835 337.911 194.712 336.638 191.241 334.691C187.769 332.745 185.301 331.193 183.835 330.035C182.369 328.877 181.256 327.599 180.498 326.201C179.74 324.804 179.361 323.266 179.361 321.589C179.361 318.675 180.478 316.164 182.712 314.058C184.946 311.952 187.788 310.899 191.24 310.899C193.394 310.899 195.677 311.428 198.091 312.486C199.207 312.986 199.995 313.234 200.455 313.234C200.974 313.234 201.398 313.08 201.727 312.77C202.056 312.461 202.32 311.837 202.519 310.899H203.627V310.9Z" fill="#B33331" stroke="#A83430" stroke-width="0.5" stroke-miterlimit="10"/>
<path d="M238.138 338.841H222.429L219.676 345.25C218.998 346.828 218.659 348.005 218.659 348.784C218.659 349.404 218.953 349.947 219.541 350.417C220.13 350.886 221.401 351.191 223.356 351.33V352.438H210.58V351.33C212.276 351.031 213.372 350.641 213.871 350.162C214.889 349.204 216.015 347.257 217.252 344.323L231.524 310.901H232.571L246.693 344.682C247.831 347.397 248.863 349.16 249.79 349.968C250.717 350.777 252.009 351.231 253.665 351.33V352.439H237.658V351.33C239.273 351.251 240.365 350.982 240.934 350.522C241.502 350.063 241.786 349.504 241.786 348.845C241.786 347.967 241.387 346.58 240.59 344.683L238.138 338.841ZM237.3 336.625L230.418 320.213L223.356 336.625H237.3Z" fill="#B33331" stroke="#A83430" stroke-width="0.5" stroke-miterlimit="10"/>
</svg>
