<svg width="81" height="90" viewBox="0 0 81 90" fill="none" xmlns="http://www.w3.org/2000/svg">
<path d="M80.9809 72.1305L41.9687 46.5071L1.06189 68.3387L1.52935 68.58L13.3545 62.5361L25.0066 69.1143L13.7981 74.9181L15.1497 75.6162L39.0981 63.1394L50.4629 69.4878L26.8672 81.6691L28.7793 82.6568L65.0997 64.1448L75.9195 70.2634L40.2853 88.6008L42.6192 89.8063L80.9809 72.1305Z" fill="white"/>
<path d="M0 22.782V68L40.9143 46.112L41 0L0 22.782ZM11.8633 60.9347L0.942201 66.8465V53.2204L11.8774 47.0491L11.8633 60.9347ZM15.318 59.2044V33.4375L25.9821 28.261L26.0392 53.3501L15.318 59.2044ZM39.7723 46.112L29.5794 51.5335V10.6412L39.8294 4.64292L39.7723 46.112Z" fill="white"/>
<path d="M80.9425 26.5831L42 0L42.1336 45.6518L81 71L80.9425 26.5831ZM52.9629 51.7593L43.3371 45.3455L43.299 30.8333L52.9629 37.4575V51.7593ZM66.1221 60.6809L57.012 54.6501V28.9954L66.1794 36.06L66.1221 60.6809ZM78.9756 69.1049L68.9487 62.4807V21.8543L79.0329 28.3255L78.9756 69.1049Z" fill="white"/>
</svg>
